<svg width="81" height="81" viewBox="0 0 81 81" fill="none" xmlns="http://www.w3.org/2000/svg">
<circle cx="40.5" cy="40.5" r="40.5" fill="#EC5D61"/>
<path d="M46.194 41.175L55.9518 31.4C57.3494 30 57.3494 27.7375 55.9518 26.3375C54.5543 24.9375 52.2958 24.9375 50.8982 26.3375L41.1466 36.1125L31.1018 26.05C29.7042 24.65 27.4457 24.65 26.0482 26.05C24.6506 27.45 24.6506 29.7125 26.0482 31.1125L36.093 41.175L26.3913 50.8937C24.9938 52.2937 24.9938 54.5562 26.3913 55.9562C27.0901 56.65 28.001 57 28.9181 57C29.8352 57 30.7461 56.65 31.4449 55.95L41.1466 46.2313L50.5613 55.6625C51.2601 56.3625 52.171 56.7125 53.0881 56.7125C54.0053 56.7125 54.9162 56.3625 55.6149 55.6625C57.0125 54.2625 57.0125 52 55.6149 50.6L46.194 41.175Z" fill="white"/>
</svg>
